<?xml version="1.0" encoding="UTF-8"?>
<svg xmlns="http://www.w3.org/2000/svg" viewBox="0 0 128 128">
  <path d="m52,101.92c-9,0-16.956-4.608-21.6-11.52.108-7.2,14.4-11.16,21.6-11.16s21.492,3.96,21.6,11.16c-4.644,6.912-12.6,11.52-21.6,11.52m0-51.12c5.965,0,10.8,4.835,10.8,10.8s-4.835,10.8-10.8,10.8-10.8-4.835-10.8-10.8,4.835-10.8,10.8-10.8m0-10.8c-19.882,0-36,16.118-36,36s16.118,36,36,36,36-16.118,36-36-16.2-36-36-36Z"/>
  <path d="m97.214,13.07l5.07-5.07,17.717,17.689-5.098,5.07c-2.925-1.894-6.908-1.588-9.499,1.003l-2.089,2.089c-2.563,2.591-2.897,6.546-.975,9.499l-5.098,5.07-6.713-6.713-7.8,7.772c-1.17,1.17-9.415,7.549-10.585,6.379s5.181-9.443,6.351-10.613l7.772-7.772-6.713-6.741,5.098-5.07c2.925,1.922,6.908,1.588,9.471-1.003l2.089-2.089c2.591-2.563,2.925-6.546,1.003-9.499Z"/>
</svg>